<svg xmlns="http://www.w3.org/2000/svg" xmlns:xlink="http://www.w3.org/1999/xlink" data-diagram-type="ACTIVITY" style="width: 1987px; height: 1339px; background: rgb(255, 255, 255); max-width: 1987px;" version="1.1" viewBox="0 0 1987 1339" width="100%" zoomAndPan="magnify"><title>**Project "AI-Ready Factory" - Stage 2: Build &amp; Deploy Workflow (Internal View)**</title><defs/><g><rect fill="#FFFFCC" height="26.6406" rx="2.5" ry="2.5" style="stroke:#FFDD88;stroke-width:3;" width="1976.938" x="5" y="5"/><text fill="#000000" font-family="monospace" font-size="10" lengthAdjust="spacing" textLength="355.21" x="10" y="20">Please use '!option handwritten true' to enable handwritten</text><g class="title" data-source-line="13"><text fill="#000000" font-family="Verdana" font-size="22" font-weight="bold" lengthAdjust="spacing" textLength="969.1602" x="500.3889" y="72.0615">Project "AI-Ready Factory" - Stage 2: Build &amp; Deploy Workflow (Internal View)</text></g><rect fill="#FFFFFF" height="20.9531" style="stroke:#FFFFFF;stroke-width:1;" width="1949.938" x="10" y="90.9951"/><ellipse cx="120.9131" cy="126.9482" fill="#FFFFFF" rx="10" ry="10" style="stroke:#000000;stroke-width:1;"/><rect fill="#F5F5F5" height="33.9688" rx="12.5" ry="12.5" style="stroke:#A9A9A9;stroke-width:1;" width="209.8262" x="16" y="156.9482"/><text fill="#000000" font-family="Verdana" font-size="12" lengthAdjust="spacing" textLength="189.8262" x="26" y="178.0869">Finalize Design &amp; Approve BOM</text><path d="M213.125,1219.8394 L213.125,1251.105 L193.125,1255.105 L213.125,1259.105 L213.125,1290.3706 A0,0 0 0 0 213.125,1290.3706 L467.0269,1290.3706 A0,0 0 0 0 467.0269,1290.3706 L467.0269,1229.8394 L457.0269,1219.8394 L213.125,1219.8394 A0,0 0 0 0 213.125,1219.8394" fill="#FFFFFF" style="stroke:#000000;stroke-width:1;"/><path d="M457.0269,1219.8394 L457.0269,1229.8394 L467.0269,1229.8394 L457.0269,1219.8394" fill="#FFFFFF" style="stroke:#000000;stroke-width:1;"/><text fill="#000000" font-family="Verdana" font-size="13" font-weight="bold" lengthAdjust="spacing" textLength="56.4941" x="219.125" y="1236.9063">Output:</text><text fill="#000000" font-family="Verdana" font-size="13" lengthAdjust="spacing" textLength="232.9019" x="219.125" y="1252.0391">A "Digitally Ready" asset collection,</text><text fill="#000000" font-family="Verdana" font-size="13" lengthAdjust="spacing" textLength="194.0605" x="219.125" y="1267.1719">fully onboarded and ready for</text><text fill="#000000" font-family="Verdana" font-size="13" lengthAdjust="spacing" textLength="166.8989" x="219.125" y="1282.3047">Stage 3 (Software Team).</text><rect fill="#F5F5F5" height="47.9375" rx="12.5" ry="12.5" style="stroke:#A9A9A9;stroke-width:1;" width="144.4238" x="48.7012" y="1231.1362"/><text fill="#000000" font-family="Verdana" font-size="12" lengthAdjust="spacing" textLength="124.4238" x="58.7012" y="1252.2749">Hold Stage 2 Review</text><text fill="#000000" font-family="Verdana" font-size="12" lengthAdjust="spacing" textLength="121.8047" x="58.7012" y="1266.2437">&amp; Internal Handover</text><ellipse cx="120.9131" cy="1321.3706" fill="none" rx="11" ry="11" style="stroke:#000000;stroke-width:1;"/><ellipse cx="120.9131" cy="1321.3706" fill="#FFFFFF" rx="6" ry="6" style="stroke:#000000;stroke-width:1;"/><line style="stroke:#000000;stroke-width:1;" x1="10" x2="10" y1="90.9951" y2="1332.3706"/><rect fill="#F5F5F5" height="47.9375" rx="12.5" ry="12.5" style="stroke:#A9A9A9;stroke-width:1;" width="187.1973" x="509.3687" y="210.917"/><text fill="#000000" font-family="Verdana" font-size="12" lengthAdjust="spacing" textLength="167.1973" x="519.3687" y="232.0557">Receive &amp; Decompose BOM</text><text fill="#000000" font-family="Verdana" font-size="12" lengthAdjust="spacing" textLength="149.3262" x="519.3687" y="246.0244">Identify Long-Lead Items</text><rect fill="#F5F5F5" height="47.9375" rx="12.5" ry="12.5" style="stroke:#A9A9A9;stroke-width:1;" width="163.543" x="521.1958" y="278.8545"/><text fill="#000000" font-family="Verdana" font-size="12" lengthAdjust="spacing" textLength="143.543" x="531.1958" y="299.9932">Issue Production Orders</text><text fill="#000000" font-family="Verdana" font-size="12" lengthAdjust="spacing" textLength="110.7773" x="531.1958" y="313.9619">to Smart Factories</text><rect fill="#F5F5F5" height="47.9375" rx="12.5" ry="12.5" style="stroke:#A9A9A9;stroke-width:1;" width="249.8809" x="478.0269" y="346.792"/><text fill="#000000" font-family="Verdana" font-size="12" lengthAdjust="spacing" textLength="104.9941" x="488.0269" y="367.9307">Manufacture with</text><text fill="#000000" font-family="Verdana" font-size="12" font-weight="bold" lengthAdjust="spacing" textLength="121.0723" x="596.8354" y="367.9307">"Digital Passport"</text><text fill="#000000" font-family="Verdana" font-size="12" lengthAdjust="spacing" textLength="200.3145" x="488.0269" y="381.8994">(Pre-config, UUID, Security Certs)</text><rect fill="#F5F5F5" height="47.9375" rx="12.5" ry="12.5" style="stroke:#A9A9A9;stroke-width:1;" width="219.1133" x="493.4106" y="414.7295"/><text fill="#000000" font-family="Verdana" font-size="12" lengthAdjust="spacing" textLength="199.1133" x="503.4106" y="435.8682">Perform Factory/Integrated Tests</text><text fill="#000000" font-family="Verdana" font-size="12" lengthAdjust="spacing" textLength="69.252" x="503.4106" y="449.8369">(FAT / iFAT)</text><rect fill="#F5F5F5" height="47.9375" rx="12.5" ry="12.5" style="stroke:#A9A9A9;stroke-width:1;" width="165.4531" x="520.2407" y="482.667"/><text fill="#000000" font-family="Verdana" font-size="12" lengthAdjust="spacing" textLength="145.4531" x="530.2407" y="503.8057">Orchestrate JIT Logistics</text><text fill="#000000" font-family="Verdana" font-size="12" lengthAdjust="spacing" textLength="133.248" x="530.2407" y="517.7744">to Staging Warehouse</text><line style="stroke:#000000;stroke-width:1;" x1="472.0269" x2="472.0269" y1="90.9951" y2="1332.3706"/><rect fill="#F5F5F5" height="47.9375" rx="12.5" ry="12.5" style="stroke:#A9A9A9;stroke-width:1;" width="142.1914" x="796.4136" y="550.6045"/><text fill="#000000" font-family="Verdana" font-size="12" lengthAdjust="spacing" textLength="122.1914" x="806.4136" y="571.7432">On-site PM Manages</text><text fill="#000000" font-family="Verdana" font-size="12" lengthAdjust="spacing" textLength="109.3945" x="806.4136" y="585.7119">Site Prep &amp; Safety</text><rect fill="#F5F5F5" height="47.9375" rx="12.5" ry="12.5" style="stroke:#A9A9A9;stroke-width:1;" width="169.3906" x="782.814" y="618.542"/><text fill="#000000" font-family="Verdana" font-size="12" lengthAdjust="spacing" textLength="116.4727" x="792.814" y="639.6807">Receive Equipment</text><text fill="#000000" font-family="Verdana" font-size="12" lengthAdjust="spacing" textLength="149.3906" x="792.814" y="653.6494">from Staging Warehouse</text><rect fill="#F5F5F5" height="47.9375" rx="12.5" ry="12.5" style="stroke:#A9A9A9;stroke-width:1;" width="259.2031" x="737.9077" y="686.4795"/><text fill="#000000" font-family="Verdana" font-size="12" lengthAdjust="spacing" textLength="182.1328" x="747.9077" y="707.6182">Supervise Physical Installation</text><text fill="#000000" font-family="Verdana" font-size="12" lengthAdjust="spacing" textLength="239.2031" x="747.9077" y="721.5869">&amp; Cabling (Power, Cooling, OT Network)</text><line style="stroke:#000000;stroke-width:1;" x1="731.9077" x2="731.9077" y1="90.9951" y2="1332.3706"/><rect fill="#F5F5F5" height="47.9375" rx="12.5" ry="12.5" style="stroke:#A9A9A9;stroke-width:1;" width="195.8926" x="1374.3091" y="754.417"/><text fill="#000000" font-family="Verdana" font-size="12" lengthAdjust="spacing" textLength="156.3809" x="1384.3091" y="775.5557">Perform System Power-up</text><text fill="#000000" font-family="Verdana" font-size="12" lengthAdjust="spacing" textLength="175.8926" x="1384.3091" y="789.5244">&amp; Site Acceptance Test (SAT)</text><polygon fill="#F5F5F5" points="1437.6816,822.3545,1506.8291,822.3545,1518.8291,834.3545,1506.8291,846.3545,1437.6816,846.3545,1425.6816,834.3545,1437.6816,822.3545" style="stroke:#A9A9A9;stroke-width:1;"/><text fill="#000000" font-family="Verdana" font-size="11" lengthAdjust="spacing" textLength="69.1475" x="1437.6816" y="838.1626">SAT Passed?</text><text fill="#000000" font-family="Verdana" font-size="11" lengthAdjust="spacing" textLength="19.0083" x="1406.6733" y="831.7603">yes</text><text fill="#000000" font-family="Verdana" font-size="11" lengthAdjust="spacing" textLength="13.7017" x="1518.8291" y="831.7603">no</text><rect fill="#F5F5F5" height="33.9688" rx="12.5" ry="12.5" style="stroke:#A9A9A9;stroke-width:1;" width="269.8438" x="1148.1958" y="856.3545"/><text fill="#000000" font-family="Verdana" font-size="12" lengthAdjust="spacing" textLength="23.5488" x="1158.1958" y="877.4932">Run</text><text fill="#000000" font-family="Verdana" font-size="12" font-weight="bold" lengthAdjust="spacing" textLength="222.4805" x="1185.5591" y="877.4932">EcoStruxure Commissioning Tool</text><rect fill="#000000" height="6" rx="2.5" ry="2.5" style="stroke:#000000;stroke-width:1;" width="554.0137" x="1007.1108" y="925.3232"/><rect fill="#F5F5F5" height="47.9375" rx="12.5" ry="12.5" style="stroke:#A9A9A9;stroke-width:1;" width="153.8574" x="1019.1108" y="951.3232"/><text fill="#000000" font-family="Verdana" font-size="12" lengthAdjust="spacing" textLength="133.8574" x="1029.1108" y="972.4619">Auto-discover Devices</text><text fill="#000000" font-family="Verdana" font-size="12" lengthAdjust="spacing" textLength="89.4551" x="1029.1108" y="986.4307">on OT Network</text><rect fill="#F5F5F5" height="47.9375" rx="12.5" ry="12.5" style="stroke:#A9A9A9;stroke-width:1;" width="167.8379" x="1200.9683" y="951.3232"/><text fill="#000000" font-family="Verdana" font-size="12" lengthAdjust="spacing" textLength="147.8379" x="1210.9683" y="972.4619">Batch Configure Devices</text><text fill="#000000" font-family="Verdana" font-size="12" lengthAdjust="spacing" textLength="108.5156" x="1210.9683" y="986.4307">&amp; Verify Firmware</text><rect fill="#F5F5F5" height="47.9375" rx="12.5" ry="12.5" style="stroke:#A9A9A9;stroke-width:1;" width="150.3184" x="1396.8062" y="951.3232"/><text fill="#000000" font-family="Verdana" font-size="12" lengthAdjust="spacing" textLength="118.166" x="1406.8062" y="972.4619">Perform Automated</text><text fill="#000000" font-family="Verdana" font-size="12" lengthAdjust="spacing" textLength="130.3184" x="1406.8062" y="986.4307">Communication Tests</text><rect fill="#000000" height="6" rx="2.5" ry="2.5" style="stroke:#000000;stroke-width:1;" width="554.0137" x="1007.1108" y="1019.2607"/><rect fill="#F5F5F5" height="47.9375" rx="12.5" ry="12.5" style="stroke:#A9A9A9;stroke-width:1;" width="155.9082" x="1205.1636" y="1045.2607"/><text fill="#000000" font-family="Verdana" font-size="12" lengthAdjust="spacing" textLength="98.7773" x="1215.1636" y="1066.3994">Generate Digital</text><text fill="#000000" font-family="Verdana" font-size="12" lengthAdjust="spacing" textLength="135.9082" x="1215.1636" y="1080.3682">Commissioning Report</text><rect fill="#F5F5F5" height="47.9375" rx="12.5" ry="12.5" style="stroke:#A9A9A9;stroke-width:1;" width="169.2617" x="1198.4868" y="1113.1982"/><text fill="#000000" font-family="Verdana" font-size="12" lengthAdjust="spacing" textLength="149.2617" x="1208.4868" y="1134.3369">Configure Edge Gateway</text><text fill="#000000" font-family="Verdana" font-size="12" lengthAdjust="spacing" textLength="143.9941" x="1208.4868" y="1148.3057">&amp; Verify Data Collection</text><path d="M1761.6616,856.3545 L1761.6616,880.0537 L1741.6616,884.0537 L1761.6616,888.0537 L1761.6616,911.7529 A0,0 0 0 0 1761.6616,911.7529 L1953.0771,911.7529 A0,0 0 0 0 1953.0771,911.7529 L1953.0771,866.3545 L1943.0771,856.3545 L1761.6616,856.3545 A0,0 0 0 0 1761.6616,856.3545" fill="#FFFFFF" style="stroke:#000000;stroke-width:1;"/><path d="M1943.0771,856.3545 L1943.0771,866.3545 L1953.0771,866.3545 L1943.0771,856.3545" fill="#FFFFFF" style="stroke:#000000;stroke-width:1;"/><text fill="#000000" font-family="Verdana" font-size="13" lengthAdjust="spacing" textLength="111.7061" x="1767.6616" y="873.4214">Feedback loop to</text><text fill="#000000" font-family="Verdana" font-size="13" lengthAdjust="spacing" textLength="127.7593" x="1767.6616" y="888.5542">Field Services team</text><text fill="#000000" font-family="Verdana" font-size="13" lengthAdjust="spacing" textLength="170.4155" x="1767.6616" y="903.687">to resolve physical issues.</text><rect fill="#F5F5F5" height="33.9688" rx="12.5" ry="12.5" style="stroke:#A9A9A9;stroke-width:1;" width="160.5371" x="1581.1245" y="867.0693"/><text fill="#000000" font-family="Verdana" font-size="12" lengthAdjust="spacing" textLength="140.5371" x="1591.1245" y="888.208">Troubleshoot &amp; Rework</text><polygon fill="#F5F5F5" points="1472.2554,1185.8394,1484.2554,1197.8394,1472.2554,1209.8394,1460.2554,1197.8394,1472.2554,1185.8394" style="stroke:#A9A9A9;stroke-width:1;"/><text fill="#000000" font-family="Verdana" font-size="11" lengthAdjust="spacing" textLength="143.3491" x="1484.2554" y="1182.4404">Perform System Power-up</text><text fill="#000000" font-family="Verdana" font-size="11" lengthAdjust="spacing" textLength="161.2349" x="1484.2554" y="1195.2451">&amp; Site Acceptance Test (SAT)</text><line style="stroke:#000000;stroke-width:1;" x1="1001.1108" x2="1001.1108" y1="90.9951" y2="1332.3706"/><line style="stroke:#000000;stroke-width:1;" x1="1958.0771" x2="1958.0771" y1="90.9951" y2="1332.3706"/><line style="stroke:#333333;stroke-width:1;" x1="120.9131" x2="120.9131" y1="136.9482" y2="156.9482"/><polygon fill="#333333" points="116.9131,146.9482,120.9131,156.9482,124.9131,146.9482,120.9131,150.9482" style="stroke:#333333;stroke-width:1;"/><line style="stroke:#333333;stroke-width:1;" x1="120.9131" x2="120.9131" y1="1279.0737" y2="1310.3706"/><polygon fill="#333333" points="116.9131,1300.3706,120.9131,1310.3706,124.9131,1300.3706,120.9131,1304.3706" style="stroke:#333333;stroke-width:1;"/><line style="stroke:#333333;stroke-width:1;" x1="602.9673" x2="602.9673" y1="258.8545" y2="278.8545"/><polygon fill="#333333" points="598.9673,268.8545,602.9673,278.8545,606.9673,268.8545,602.9673,272.8545" style="stroke:#333333;stroke-width:1;"/><line style="stroke:#333333;stroke-width:1;" x1="602.9673" x2="602.9673" y1="326.792" y2="346.792"/><polygon fill="#333333" points="598.9673,336.792,602.9673,346.792,606.9673,336.792,602.9673,340.792" style="stroke:#333333;stroke-width:1;"/><line style="stroke:#333333;stroke-width:1;" x1="602.9673" x2="602.9673" y1="394.7295" y2="414.7295"/><polygon fill="#333333" points="598.9673,404.7295,602.9673,414.7295,606.9673,404.7295,602.9673,408.7295" style="stroke:#333333;stroke-width:1;"/><line style="stroke:#333333;stroke-width:1;" x1="602.9673" x2="602.9673" y1="462.667" y2="482.667"/><polygon fill="#333333" points="598.9673,472.667,602.9673,482.667,606.9673,472.667,602.9673,476.667" style="stroke:#333333;stroke-width:1;"/><line style="stroke:#333333;stroke-width:1;" x1="867.5093" x2="867.5093" y1="598.542" y2="618.542"/><polygon fill="#333333" points="863.5093,608.542,867.5093,618.542,871.5093,608.542,867.5093,612.542" style="stroke:#333333;stroke-width:1;"/><line style="stroke:#333333;stroke-width:1;" x1="867.5093" x2="867.5093" y1="666.4795" y2="686.4795"/><polygon fill="#333333" points="863.5093,676.4795,867.5093,686.4795,871.5093,676.4795,867.5093,680.4795" style="stroke:#333333;stroke-width:1;"/><line style="stroke:#333333;stroke-width:1;" x1="1096.0396" x2="1096.0396" y1="931.3232" y2="951.3232"/><polygon fill="#333333" points="1092.0396,941.3232,1096.0396,951.3232,1100.0396,941.3232,1096.0396,945.3232" style="stroke:#333333;stroke-width:1;"/><line style="stroke:#333333;stroke-width:1;" x1="1284.8872" x2="1284.8872" y1="931.3232" y2="951.3232"/><polygon fill="#333333" points="1280.8872,941.3232,1284.8872,951.3232,1288.8872,941.3232,1284.8872,945.3232" style="stroke:#333333;stroke-width:1;"/><line style="stroke:#333333;stroke-width:1;" x1="1471.9653" x2="1471.9653" y1="931.3232" y2="951.3232"/><polygon fill="#333333" points="1467.9653,941.3232,1471.9653,951.3232,1475.9653,941.3232,1471.9653,945.3232" style="stroke:#333333;stroke-width:1;"/><line style="stroke:#333333;stroke-width:1;" x1="1096.0396" x2="1096.0396" y1="999.2607" y2="1019.2607"/><polygon fill="#333333" points="1092.0396,1009.2607,1096.0396,1019.2607,1100.0396,1009.2607,1096.0396,1013.2607" style="stroke:#333333;stroke-width:1;"/><line style="stroke:#333333;stroke-width:1;" x1="1284.8872" x2="1284.8872" y1="999.2607" y2="1019.2607"/><polygon fill="#333333" points="1280.8872,1009.2607,1284.8872,1019.2607,1288.8872,1009.2607,1284.8872,1013.2607" style="stroke:#333333;stroke-width:1;"/><line style="stroke:#333333;stroke-width:1;" x1="1471.9653" x2="1471.9653" y1="999.2607" y2="1019.2607"/><polygon fill="#333333" points="1467.9653,1009.2607,1471.9653,1019.2607,1475.9653,1009.2607,1471.9653,1013.2607" style="stroke:#333333;stroke-width:1;"/><line style="stroke:#333333;stroke-width:1;" x1="1283.1177" x2="1283.1177" y1="890.3232" y2="925.3232"/><polygon fill="#333333" points="1279.1177,915.3232,1283.1177,925.3232,1287.1177,915.3232,1283.1177,919.3232" style="stroke:#333333;stroke-width:1;"/><line style="stroke:#333333;stroke-width:1;" x1="1283.1177" x2="1283.1177" y1="1025.2607" y2="1045.2607"/><polygon fill="#333333" points="1279.1177,1035.2607,1283.1177,1045.2607,1287.1177,1035.2607,1283.1177,1039.2607" style="stroke:#333333;stroke-width:1;"/><line style="stroke:#333333;stroke-width:1;" x1="1283.1177" x2="1283.1177" y1="1093.1982" y2="1113.1982"/><polygon fill="#333333" points="1279.1177,1103.1982,1283.1177,1113.1982,1287.1177,1103.1982,1283.1177,1107.1982" style="stroke:#333333;stroke-width:1;"/><line style="stroke:#333333;stroke-width:1;" x1="1425.6816" x2="1283.1177" y1="834.3545" y2="834.3545"/><line style="stroke:#333333;stroke-width:1;" x1="1283.1177" x2="1283.1177" y1="834.3545" y2="856.3545"/><polygon fill="#333333" points="1279.1177,846.3545,1283.1177,856.3545,1287.1177,846.3545,1283.1177,850.3545" style="stroke:#333333;stroke-width:1;"/><line style="stroke:#333333;stroke-width:1;" x1="1518.8291" x2="1661.3931" y1="834.3545" y2="834.3545"/><line style="stroke:#333333;stroke-width:1;" x1="1661.3931" x2="1661.3931" y1="834.3545" y2="867.0693"/><polygon fill="#333333" points="1657.3931,857.0693,1661.3931,867.0693,1665.3931,857.0693,1661.3931,861.0693" style="stroke:#333333;stroke-width:1;"/><line style="stroke:#333333;stroke-width:1;" x1="1283.1177" x2="1283.1177" y1="1161.1357" y2="1197.8394"/><line style="stroke:#333333;stroke-width:1;" x1="1283.1177" x2="1460.2554" y1="1197.8394" y2="1197.8394"/><polygon fill="#333333" points="1450.2554,1193.8394,1460.2554,1197.8394,1450.2554,1201.8394,1454.2554,1197.8394" style="stroke:#333333;stroke-width:1;"/><line style="stroke:#333333;stroke-width:1;" x1="1661.3931" x2="1661.3931" y1="901.0381" y2="1197.8394"/><line style="stroke:#333333;stroke-width:1;" x1="1661.3931" x2="1484.2554" y1="1197.8394" y2="1197.8394"/><polygon fill="#333333" points="1494.2554,1193.8394,1484.2554,1197.8394,1494.2554,1201.8394,1490.2554,1197.8394" style="stroke:#333333;stroke-width:1;"/><line style="stroke:#333333;stroke-width:1;" x1="1472.2554" x2="1472.2554" y1="802.3545" y2="822.3545"/><polygon fill="#333333" points="1468.2554,812.3545,1472.2554,822.3545,1476.2554,812.3545,1472.2554,816.3545" style="stroke:#333333;stroke-width:1;"/><line style="stroke:#333333;stroke-width:1;" x1="120.9131" x2="120.9131" y1="190.917" y2="195.917"/><line style="stroke:#333333;stroke-width:1;" x1="120.9131" x2="602.9673" y1="195.917" y2="195.917"/><line style="stroke:#333333;stroke-width:1;" x1="602.9673" x2="602.9673" y1="195.917" y2="210.917"/><polygon fill="#333333" points="598.9673,200.917,602.9673,210.917,606.9673,200.917,602.9673,204.917" style="stroke:#333333;stroke-width:1;"/><line style="stroke:#333333;stroke-width:1;" x1="602.9673" x2="602.9673" y1="530.6045" y2="535.6045"/><line style="stroke:#333333;stroke-width:1;" x1="602.9673" x2="867.5093" y1="535.6045" y2="535.6045"/><line style="stroke:#333333;stroke-width:1;" x1="867.5093" x2="867.5093" y1="535.6045" y2="550.6045"/><polygon fill="#333333" points="863.5093,540.6045,867.5093,550.6045,871.5093,540.6045,867.5093,544.6045" style="stroke:#333333;stroke-width:1;"/><line style="stroke:#333333;stroke-width:1;" x1="867.5093" x2="867.5093" y1="734.417" y2="739.417"/><line style="stroke:#333333;stroke-width:1;" x1="867.5093" x2="1472.2554" y1="739.417" y2="739.417"/><line style="stroke:#333333;stroke-width:1;" x1="1472.2554" x2="1472.2554" y1="739.417" y2="754.417"/><polygon fill="#333333" points="1468.2554,744.417,1472.2554,754.417,1476.2554,744.417,1472.2554,748.417" style="stroke:#333333;stroke-width:1;"/><line style="stroke:#333333;stroke-width:1;" x1="1472.2554" x2="1472.2554" y1="1209.8394" y2="1214.8394"/><line style="stroke:#333333;stroke-width:1;" x1="1472.2554" x2="120.9131" y1="1214.8394" y2="1214.8394"/><line style="stroke:#333333;stroke-width:1;" x1="120.9131" x2="120.9131" y1="1214.8394" y2="1231.1362"/><polygon fill="#333333" points="116.9131,1221.1362,120.9131,1231.1362,124.9131,1221.1362,120.9131,1225.1362" style="stroke:#333333;stroke-width:1;"/><text fill="#000000" font-family="Verdana" font-size="18" lengthAdjust="spacing" textLength="218.2148" x="131.906" y="107.7031">PMO / Solution Architect</text><text fill="#000000" font-family="Verdana" font-size="18" lengthAdjust="spacing" textLength="239.3262" x="482.3042" y="107.7031">Global Supply Chain (GSC)</text><text fill="#000000" font-family="Verdana" font-size="18" lengthAdjust="spacing" textLength="223.5586" x="754.73" y="107.7031">Field Services / EcoXpert</text><text fill="#000000" font-family="Verdana" font-size="18" lengthAdjust="spacing" textLength="285.8467" x="1336.6707" y="107.7031">Commissioning Engineers (FSE)</text></g></svg>